<svg xmlns="http://www.w3.org/2000/svg" viewBox="0 0 209 141">
  <g id="Form_Box" data-name="Form Box">
    <path id="Background" data-name="Background" d="M193,60.47V76.59l-.36.31a8.81,8.81,0,0,0-2.46,4.27,24.17,24.17,0,0,0-.68,6.15v23.93a36.5,36.5,0,0,1-1.37,10.36A21.15,21.15,0,0,1,186.8,125h-165Q19,119.5,19,111.25V87.73a21.88,21.88,0,0,0-.75-6,9.83,9.83,0,0,0-2.64-4.44,12.18,12.18,0,0,0-5-2.77A21.46,21.46,0,0,0,6,73.71V64a27.16,27.16,0,0,0,4.94-.73,11.18,11.18,0,0,0,4.92-2.49,8.72,8.72,0,0,0,2.46-4.28A24.13,24.13,0,0,0,19,50.34V34.14a36.15,36.15,0,0,1,1.37-10.36A19.21,19.21,0,0,1,23.9,17H184.56q4.94,6.12,4.94,17.14V49.93a21.83,21.83,0,0,0,.75,6,9.8,9.8,0,0,0,2.63,4.45Z" style="fill: #fff"/>
    <path id="Right_Brace" data-name="Right Brace" d="M208.71,62.08v9.5h-2.94a33.9,33.9,0,0,0-8.17.82,11.67,11.67,0,0,0-4.6,2.19l-.36.31a8.81,8.81,0,0,0-2.46,4.27,24.17,24.17,0,0,0-.68,6.15v23.93a36.5,36.5,0,0,1-1.37,10.36A21.15,21.15,0,0,1,186.8,123a18.17,18.17,0,0,1-3.11,4.47,20.12,20.12,0,0,1-8.07,5A36.67,36.67,0,0,1,164,134.19V141l-10.34-11.85,5.39-6.12,4.95-5.63v7.21a18.79,18.79,0,0,0,7.06-1.58q7.23-3.34,7.23-13.75V85.6q0-16.68,14.42-18.73-14.57-1.58-14.56-18.8V32.41q0-15.64-15.66-15.65h-4.1V7.19h5.06q13.2,0,19.62,6.19A19.06,19.06,0,0,1,184.56,15q4.94,6.12,4.94,17.14V47.93a21.83,21.83,0,0,0,.75,6,9.8,9.8,0,0,0,2.63,4.45l.12.11a12.21,12.21,0,0,0,4.9,2.65,27.4,27.4,0,0,0,7.87,1Z" style="fill: #ca3694"/>
    <path id="Left_Brace" data-name="Left Brace" d="M46.31,24V16.76h-.23q-15.87,0-15.86,15.38V48.07q0,16.68-14.43,18.8Q30.36,68.29,30.36,85.6V109q0,10.6,7.22,14a19.7,19.7,0,0,0,8.5,1.63h4v9.57H45.05q-13.18,0-19.62-6.19a18.25,18.25,0,0,1-3.65-5Q19,117.5,19,109.25V85.73a21.88,21.88,0,0,0-.75-6,9.83,9.83,0,0,0-2.64-4.44,12.18,12.18,0,0,0-5-2.77A21.46,21.46,0,0,0,6,71.71c-1-.09-2.06-.13-3.19-.13H-.13v-9.5H2.81C4,62.08,5,62.05,6,62a27.16,27.16,0,0,0,4.94-.73,11.18,11.18,0,0,0,4.92-2.49,8.72,8.72,0,0,0,2.46-4.28A24.13,24.13,0,0,0,19,48.34V32.14a36.15,36.15,0,0,1,1.37-10.36A19.21,19.21,0,0,1,23.9,15c.3-.37.62-.73,1-1.08a20.29,20.29,0,0,1,8.07-5A36.87,36.87,0,0,1,45.05,7.19h1.26V.37L56.66,12.12,54.14,15Z" style="fill: #ca3894"/>
  </g>
</svg>
