<svg id="Layer_1" data-name="Layer 1" xmlns="http://www.w3.org/2000/svg" viewBox="0 0 23.52 55.42">
  <title>left-curly-brace</title>
  <path d="M12.63,45V35.29q0-7.16-6-7.75,6-.88,6-7.79V13.16q0-6.37,6.57-6.37h.09v3l4.29-4.9L19.23,0V2.82h-.52a15,15,0,0,0-5,.73,8.43,8.43,0,0,0-3.34,2.06A7.87,7.87,0,0,0,8.49,8.87a15,15,0,0,0-.56,4.29v6.71a9.92,9.92,0,0,1-.29,2.54,3.64,3.64,0,0,1-1,1.77,4.69,4.69,0,0,1-2,1,14.11,14.11,0,0,1-3.37.34H0v3.93H1.22a11,11,0,0,1,3.24.4A5,5,0,0,1,6.53,31a4.08,4.08,0,0,1,1.08,1.84,9,9,0,0,1,.32,2.48v9.74c0,3.47.88,6.06,2.66,7.77s4.48,2.56,8.12,2.56h2.1v-4H19.14Q12.63,51.46,12.63,45Z" style="fill: #ca3894"/>
</svg>
