<svg id="Outline" xmlns="http://www.w3.org/2000/svg" viewBox="0 0 545 130">
  <title>logo</title>
  <path d="M62,32.48V31.27H25.28V57.84H50V51.37L60.34,63.23,50,75v-6.7H25.28v39.47H31L19.12,118.08,7.37,107.74h6.05V20.55H62V14.37L72.34,26.23,62,38Zm41-10.14L91.23,12,79.37,22.34h6.31v86.72H96.41V22.34H103ZM155.32,88h10.55a22.41,22.41,0,0,1-2.77,7.84,28.28,28.28,0,0,1-5.25,7.06,24.84,24.84,0,0,1-12,6.43,36.47,36.47,0,0,1-8.69.95,26.63,26.63,0,0,1-20.07-8.67q-8.22-8.66-8.22-24.27,0-15.37,8.29-25t21.66-9.59A28.76,28.76,0,0,1,151.9,46a24.12,24.12,0,0,1,9.65,8.25,28.54,28.54,0,0,1,4.26,11.26,74,74,0,0,1,.95,14H120.35q.3,9.75,4.56,15.63t13.17,5.88q8.34,0,13.3-5.57A18.77,18.77,0,0,0,155.32,88Zm-34.73-17h35.15a28.15,28.15,0,0,0-3-11.14q-4.38-7.76-14.59-7.75a16.12,16.12,0,0,0-12.29,5.33A20.25,20.25,0,0,0,120.59,71.07Zm111,37h-13.7l-15.85-24-15.37,24H173.13l22.46-32.71L174.26,44.26h13.88L202.8,66.72l14.83-22.46,13.05.3L209.17,75.35ZM298.1,44.32,286.35,34,274.5,44.32H281V75.59q0,9.36-2.15,14.72-3.94,10-14.85,10-7.6,0-10.39-5.71a18.39,18.39,0,0,1-1.51-8V44.26h-11V87.63q0,8.16,2.63,13,4.86,9.12,18.24,9.12a22.07,22.07,0,0,0,14.61-5,21.62,21.62,0,0,0,5.09-6.13l-.12,9.41h10.13V44.32h6.42ZM321,107.66h-.83V20.55H309.49v87.11h-6.56L314.79,118l11.74-10.34Zm68.09,3.48v-1.81c-.78.07-1.73.1-2.85.1q-5.55,0-8-3.93a15.14,15.14,0,0,1-1.84-5.9,27.43,27.43,0,0,1-9.42,7.45,29.14,29.14,0,0,1-13.52,3.15q-8.88,0-14.5-5.38a17.85,17.85,0,0,1-5.63-13.48q0-8.86,5.54-13.74t14.53-6l17.1-2.14q3.69-.48,4.94-3.09a9.47,9.47,0,0,0,.72-4.13q0-5.5-3.9-8t-11.14-2.49q-8.39,0-11.89,4.55-2,2.52-2.56,7.49h-10Q337,52,344.3,47.34a31.26,31.26,0,0,1,17-4.63q11.25,0,18.27,4.29t7,13.34V97.1a4.67,4.67,0,0,0,.69,2.68,2.56,2.56,0,0,0,1.87.94V93l10.34,11.85-10.34,11.75ZM375.85,75.63a17.94,17.94,0,0,1-5.05,2.09,42.81,42.81,0,0,1-6.07,1.2l-6.48.83a25.15,25.15,0,0,0-8.76,2.44q-5,2.79-5,8.91a8.8,8.8,0,0,0,3.39,7.31,12.59,12.59,0,0,0,8,2.68,24.45,24.45,0,0,0,11-2.62q8.93-4.34,8.93-14.21ZM427.32,53V44.26H417.13V26.45H406.29V44.26h-8V37L388,48.77l10.34,11.86V53h8V95.25q0,6.14,2.68,10t10.19,3.84a36.27,36.27,0,0,0,4.32-.24,23.73,23.73,0,0,0,3.84-.77V99.54c-.8.11-1.49.17-2.09.2s-1.15,0-1.66,0a9.54,9.54,0,0,1-4.17-.66q-2.26-1.12-2.27-4.46V53Zm65.41,21.77q0,15.42-7.46,25.47t-23.12,10.06q-13.08,0-20.77-8.9t-7.69-23.89q0-16.08,8.11-25.59t21.77-9.53a28.58,28.58,0,0,1,20.7,8.22Q492.73,58.84,492.73,74.79Zm-11.2.3q0-8.93-2.83-14.52-4.47-8.8-15.43-8.81-9.72,0-14.14,7.5t-4.42,18.09q0,10.17,4.42,17t14,6.78q10.55,0,14.46-8.06A40.56,40.56,0,0,0,481.53,75.09Zm53.25-32.2c-.47,0-.81-.06-1-.06a15.91,15.91,0,0,0-11.26,4.62q-4.87,4.61-6.13,7.83v-11H506.19v63.4h-5.82L512.12,118,524,107.66h-7.06V71.36a18.21,18.21,0,0,1,4.35-12q4.35-5.2,12.45-5.21c.64,0,1.22,0,1.76.06a16,16,0,0,1,1.76.24V43.13Z" style="fill: #ca3694"/>
</svg>
