<svg id="Logo" xmlns="http://www.w3.org/2000/svg" viewBox="0 0 576 216">
  <g id="Text">
    <polygon points="79 95.84 37.28 95.84 37.28 69.27 86.13 69.27 86.13 58.55 25.43 58.55 25.43 145.74 24.86 145.74 19.37 145.74 31.12 156.09 42.97 145.74 37.28 145.74 37.28 106.27 79 106.27 79 107.48 79 112.97 89.34 101.23 79 89.37 79 95.84" fill="#ca3694"/>
    <polygon points="109.48 59.34 114.97 59.34 103.23 49 91.37 59.34 97.68 59.34 97.68 146 96.86 146 91.37 146 103.12 156.34 114.97 146 108.41 146 108.41 59.34 109.48 59.34" fill="#ca3694"/>
    <path d="M304.61,82.32h5.49L298.35,72,286.5,82.32H293v31.27q0,9.36-2.15,14.72-3.94,10-14.85,10-7.6,0-10.39-5.71a18.39,18.39,0,0,1-1.51-8V82.26h-11v43.37q0,8.16,2.63,13,4.86,9.12,18.24,9.12a22.07,22.07,0,0,0,14.61-5,21.62,21.62,0,0,0,5.09-6.13l-.12,9.35h-7.18l11.75,10.34L310,146h-6.29V82.32Z" fill="#ca3694"/>
    <polygon points="333.61 59 339.1 59 327.35 48.66 315.5 59 321.49 59 321.49 145.66 314.93 145.66 326.79 156 338.53 145.66 333.04 145.66 332.21 145.66 332.21 59 333.61 59" fill="#ca3694"/>
    <path d="M401.13,138.72a2.53,2.53,0,0,1-1.87-.94,4.67,4.67,0,0,1-.69-2.68V98.34q0-9-7-13.34t-18.27-4.29a31.26,31.26,0,0,0-17,4.63q-7.35,4.64-7.65,16.46h10q.6-5,2.56-7.49,3.51-4.55,11.89-4.55,7.25,0,11.14,2.49t3.9,8a9.47,9.47,0,0,1-.72,4.13q-1.24,2.61-4.94,3.09l-17.1,2.14q-9,1.13-14.53,6t-5.54,13.74A17.85,17.85,0,0,0,351,142.82q5.63,5.38,14.5,5.38A29.14,29.14,0,0,0,379,145.05a27.43,27.43,0,0,0,9.42-7.45,15.14,15.14,0,0,0,1.84,5.9q2.5,3.93,8,3.93c1.12,0,2.07,0,2.85-.1v7.3l10.34-11.75L401.13,131Zm-13.28-16.46q0,9.87-8.93,14.21a24.45,24.45,0,0,1-11,2.62,12.59,12.59,0,0,1-8-2.68,8.8,8.8,0,0,1-3.39-7.31q0-6.12,5-8.91a25.15,25.15,0,0,1,8.76-2.44l6.48-.83a42.81,42.81,0,0,0,6.07-1.2,17.94,17.94,0,0,0,5.05-2.09Z" fill="#ca3694"/>
    <path d="M177.81,103.53a28.54,28.54,0,0,0-4.26-11.26A24.12,24.12,0,0,0,163.9,84a28.76,28.76,0,0,0-13.09-3.19q-13.38,0-21.66,9.59t-8.29,25q0,15.62,8.22,24.27a26.63,26.63,0,0,0,20.07,8.67,36.47,36.47,0,0,0,8.69-.95,24.84,24.84,0,0,0,12-6.43,28.28,28.28,0,0,0,5.25-7.06,22.41,22.41,0,0,0,2.77-7.84H167.32a18.77,18.77,0,0,1-3.94,7.48q-5,5.56-13.3,5.57-8.91,0-13.17-5.88t-4.56-15.63h46.41A74,74,0,0,0,177.81,103.53Zm-45.22,5.54a20.25,20.25,0,0,1,5.26-13.56,16.12,16.12,0,0,1,12.29-5.33q10.22,0,14.59,7.75a28.15,28.15,0,0,1,3,11.14Z" fill="#ca3694"/>
    <polygon points="242.68 82.56 229.63 82.26 214.8 104.72 200.15 82.26 186.26 82.26 207.59 113.35 185.13 146.06 198.72 146.06 214.08 122.11 229.93 146.06 243.63 146.06 221.17 113.35 242.68 82.56" fill="#ca3694"/>
    <path d="M435.57,137.78a9.54,9.54,0,0,1-4.17-.66q-2.26-1.12-2.27-4.46V91h9.53v7.61L449,86.88,438.66,75v7.23h-9.53V65h6L423.35,54.66,411.5,65h6.79V82.26h-8.64V91h8.64v42.23q0,6.13,2.68,10t10.19,3.84a36.27,36.27,0,0,0,4.32-.24,23.73,23.73,0,0,0,3.84-.77v-8.52c-.8.11-1.49.17-2.09.2S436.08,137.78,435.57,137.78Z" fill="#ca3694"/>
    <path d="M475.57,80.41q-13.67,0-21.77,9.53t-8.11,25.59q0,15,7.69,23.89t20.77,8.9q15.68,0,23.12-10.06t7.46-25.47q0-15.95-8.46-24.16A28.58,28.58,0,0,0,475.57,80.41Zm14,50.62q-3.92,8.06-14.46,8.06-9.6,0-14-6.78t-4.42-17q0-10.59,4.42-18.09t14.14-7.5q11,0,15.43,8.81,2.82,5.59,2.83,14.52A40.56,40.56,0,0,1,489.61,131Z" fill="#ca3694"/>
    <path d="M546.78,80.89c-.47,0-.81-.06-1-.06a15.91,15.91,0,0,0-11.26,4.62q-4.87,4.6-6.13,7.83V83h6.72L523.35,72.66,511.5,83h6.69v62.66h-5.82L524.12,156,536,145.66h-7.06v-36.3a18.21,18.21,0,0,1,4.35-12q4.35-5.2,12.45-5.21c.64,0,1.22,0,1.76.06a16,16,0,0,1,1.76.24V81.13Z" fill="#ca3694"/>
  </g>
</svg>
