<svg id="Layer_1" data-name="Layer 1" xmlns="http://www.w3.org/2000/svg" viewBox="0 0 23.52 55.42">
  <title>right-curly-brace</title>
  <path d="M10.89,10.45v9.68q0,7.15,6,7.75-6,.89-6,7.79v6.59q0,6.38-6.57,6.37H4.29v-3L0,50.55l4.29,4.87V52.6h.52a15,15,0,0,0,5-.73,8.43,8.43,0,0,0,3.34-2.06A7.87,7.87,0,0,0,15,46.55a15.32,15.32,0,0,0,.56-4.29v-6.7A10,10,0,0,1,15.88,33a3.55,3.55,0,0,1,1-1.77,4.73,4.73,0,0,1,2-1,14.11,14.11,0,0,1,3.37-.33h1.22V25.93H22.3a11,11,0,0,1-3.24-.4A5,5,0,0,1,17,24.39a4.09,4.09,0,0,1-1.09-1.84,9.34,9.34,0,0,1-.31-2.48V10.33c0-3.47-.88-6.06-2.66-7.77S8.45,0,4.81,0H2.71V4H4.38Q10.89,4,10.89,10.45Z" style="fill: #ca3894"/>
</svg>
